<?xml version="1.0" encoding="UTF-8" standalone="no"?>
<!DOCTYPE svg PUBLIC "-//W3C//DTD SVG 1.1//EN" "http://www.w3.org/Graphics/SVG/1.1/DTD/svg11.dtd">
<svg version="1.1" xmlns="http://www.w3.org/2000/svg" xmlns:xlink="http://www.w3.org/1999/xlink" preserveAspectRatio="xMidYMid meet" viewBox="0 0 640 400" width="640" height="400"><defs><path d="M119.07 51.82C122.77 47.72 129.09 47.39 133.19 51.09C185.16 97.93 333.64 231.78 385.61 278.63C389.71 282.33 390.04 288.65 386.34 292.75C372.97 307.58 339.56 344.65 326.19 359.48C322.49 363.58 316.17 363.91 312.06 360.21C260.1 313.36 111.62 179.52 59.65 132.67C55.55 128.97 55.22 122.65 58.92 118.54C72.29 103.71 105.7 66.65 119.07 51.82Z" id="d5K5UXKSC"></path><path d="M581.08 118.56C584.78 122.67 584.45 128.99 580.35 132.69C528.37 179.52 379.85 313.32 327.87 360.15C323.76 363.85 317.44 363.52 313.74 359.42C300.38 344.58 266.98 307.51 253.61 292.68C249.92 288.57 250.25 282.25 254.35 278.55C306.33 231.72 454.85 97.92 506.83 51.08C510.93 47.39 517.26 47.72 520.95 51.82C534.32 66.65 567.72 103.73 581.08 118.56Z" id="bgUPkPSrG"></path></defs><g><g><g><use xlink:href="#d5K5UXKSC" opacity="1" fill="#f1f2eb" fill-opacity="1"></use></g><g><use xlink:href="#bgUPkPSrG" opacity="1" fill="#f1f2eb" fill-opacity="1"></use></g></g></g></svg>